<svg viewBox="0 0 760 420" xmlns="http://www.w3.org/2000/svg">
<text x="380.0" y="22" text-anchor="middle" font-size="14" font-weight="600" fill="#333">1st drift: discrepancy on AA grows under FPO</text>
<line x1="56" y1="364" x2="704" y2="364" stroke="#555" stroke-width="1.5"/>
<line x1="56" y1="56" x2="56" y2="364" stroke="#555" stroke-width="1.5"/>
<line x1="52" y1="364.0" x2="56" y2="364.0" stroke="#555" stroke-width="1.5"/>
<line x1="56" y1="364.0" x2="704" y2="364.0" stroke="#eee" stroke-width="1"/>
<text x="48" y="368.0" text-anchor="end" font-size="11" fill="#666">-0.032</text>
<line x1="52" y1="287.0" x2="56" y2="287.0" stroke="#555" stroke-width="1.5"/>
<line x1="56" y1="287.0" x2="704" y2="287.0" stroke="#eee" stroke-width="1"/>
<text x="48" y="291.0" text-anchor="end" font-size="11" fill="#666">0.047</text>
<line x1="52" y1="210.0" x2="56" y2="210.0" stroke="#555" stroke-width="1.5"/>
<line x1="56" y1="210.0" x2="704" y2="210.0" stroke="#eee" stroke-width="1"/>
<text x="48" y="214.0" text-anchor="end" font-size="11" fill="#666">0.125</text>
<line x1="52" y1="132.99999999999997" x2="56" y2="132.99999999999997" stroke="#555" stroke-width="1.5"/>
<line x1="56" y1="132.99999999999997" x2="704" y2="132.99999999999997" stroke="#eee" stroke-width="1"/>
<text x="48" y="136.99999999999997" text-anchor="end" font-size="11" fill="#666">0.203</text>
<line x1="52" y1="56.0" x2="56" y2="56.0" stroke="#555" stroke-width="1.5"/>
<line x1="56" y1="56.0" x2="704" y2="56.0" stroke="#eee" stroke-width="1"/>
<text x="48" y="60.0" text-anchor="end" font-size="11" fill="#666">0.282</text>
<line x1="56.0" y1="364" x2="56.0" y2="368" stroke="#555" stroke-width="1.5"/>
<text x="56.0" y="382" text-anchor="middle" font-size="11" fill="#666">0</text>
<line x1="218.0" y1="364" x2="218.0" y2="368" stroke="#555" stroke-width="1.5"/>
<text x="218.0" y="382" text-anchor="middle" font-size="11" fill="#666">375</text>
<line x1="380.0" y1="364" x2="380.0" y2="368" stroke="#555" stroke-width="1.5"/>
<text x="380.0" y="382" text-anchor="middle" font-size="11" fill="#666">750</text>
<line x1="542.0" y1="364" x2="542.0" y2="368" stroke="#555" stroke-width="1.5"/>
<text x="542.0" y="382" text-anchor="middle" font-size="11" fill="#666">1125</text>
<line x1="704.0" y1="364" x2="704.0" y2="368" stroke="#555" stroke-width="1.5"/>
<text x="704.0" y="382" text-anchor="middle" font-size="11" fill="#666">1500</text>
<text x="380.0" y="412" text-anchor="middle" font-size="12" fill="#444">training step</text>
<text x="14" y="210.0" text-anchor="middle" font-size="12" fill="#444" transform="rotate(-90 14 210.0)">gap on AA (log pi - ELBO)</text>
<polyline points="56.0,332.9 66.8,332.9 77.6,332.6 88.4,332.2 99.2,331.7 110.0,330.9 120.8,329.9 131.6,328.8 142.4,327.3 153.2,325.7 164.0,323.9 174.8,321.8 185.6,319.5 196.4,316.9 207.2,314.2 218.0,311.2 228.8,308.1 239.6,304.7 250.4,301.2 261.2,297.5 272.0,293.6 282.8,289.6 293.6,285.5 304.4,281.2 315.2,276.9 326.0,272.4 336.8,267.8 347.6,263.1 358.4,258.4 369.2,253.6 380.0,248.7 390.8,243.8 401.6,238.8 412.4,233.8 423.2,228.8 434.0,223.8 444.8,218.7 455.6,213.6 466.4,208.5 477.2,203.4 488.0,198.3 498.8,193.2 509.6,188.1 520.4,183.0 531.2,177.9 542.0,172.8 552.8,167.8 563.6,162.7 574.4,157.7 585.2,152.7 596.0,147.7 606.8,142.8 617.6,137.8 628.4,132.9 639.2,128.1 650.0,123.2 660.8,118.4 671.6,113.6 682.4,108.8 693.2,104.1 704.0,99.4" fill="none" stroke="#d62728" stroke-width="2.5"/>
<circle cx="604" cy="76" r="4" fill="#d62728"/>
<text x="614" y="80" font-size="12" fill="#333">FPO (beta=0)</text>
<polyline points="56.0,332.9 66.8,332.9 77.6,332.7 88.4,332.3 99.2,331.9 110.0,331.3 120.8,330.7 131.6,329.9 142.4,329.0 153.2,328.1 164.0,327.1 174.8,326.1 185.6,325.0 196.4,323.9 207.2,322.7 218.0,321.6 228.8,320.4 239.6,319.2 250.4,318.0 261.2,316.9 272.0,315.7 282.8,314.6 293.6,313.4 304.4,312.3 315.2,311.3 326.0,310.2 336.8,309.2 347.6,308.2 358.4,307.2 369.2,306.3 380.0,305.4 390.8,304.5 401.6,303.6 412.4,302.8 423.2,302.0 434.0,301.3 444.8,300.5 455.6,299.8 466.4,299.2 477.2,298.5 488.0,297.9 498.8,297.3 509.6,296.7 520.4,296.1 531.2,295.6 542.0,295.1 552.8,294.6 563.6,294.1 574.4,293.7 585.2,293.2 596.0,292.8 606.8,292.4 617.6,292.0 628.4,291.6 639.2,291.3 650.0,290.9 660.8,290.6 671.6,290.3 682.4,290.0 693.2,289.7 704.0,289.4" fill="none" stroke="#1f77b4" stroke-width="2.5"/>
<circle cx="604" cy="96" r="4" fill="#1f77b4"/>
<text x="614" y="100" font-size="12" fill="#333">FPO+DiPOD (beta=0.2)</text>
</svg>