<svg viewBox="0 0 760 420" xmlns="http://www.w3.org/2000/svg">
<text x="380.0" y="22" text-anchor="middle" font-size="14" font-weight="600" fill="#333">2nd drift: gradient alignment falls under FPO</text>
<line x1="56" y1="364" x2="704" y2="364" stroke="#555" stroke-width="1.5"/>
<line x1="56" y1="56" x2="56" y2="364" stroke="#555" stroke-width="1.5"/>
<line x1="52" y1="364.0" x2="56" y2="364.0" stroke="#555" stroke-width="1.5"/>
<line x1="56" y1="364.0" x2="704" y2="364.0" stroke="#eee" stroke-width="1"/>
<text x="48" y="368.0" text-anchor="end" font-size="11" fill="#666">0.805</text>
<line x1="52" y1="287.0" x2="56" y2="287.0" stroke="#555" stroke-width="1.5"/>
<line x1="56" y1="287.0" x2="704" y2="287.0" stroke="#eee" stroke-width="1"/>
<text x="48" y="291.0" text-anchor="end" font-size="11" fill="#666">0.859</text>
<line x1="52" y1="210.0" x2="56" y2="210.0" stroke="#555" stroke-width="1.5"/>
<line x1="56" y1="210.0" x2="704" y2="210.0" stroke="#eee" stroke-width="1"/>
<text x="48" y="214.0" text-anchor="end" font-size="11" fill="#666">0.912</text>
<line x1="52" y1="133.0" x2="56" y2="133.0" stroke="#555" stroke-width="1.5"/>
<line x1="56" y1="133.0" x2="704" y2="133.0" stroke="#eee" stroke-width="1"/>
<text x="48" y="137.0" text-anchor="end" font-size="11" fill="#666">0.966</text>
<line x1="52" y1="56.0" x2="56" y2="56.0" stroke="#555" stroke-width="1.5"/>
<line x1="56" y1="56.0" x2="704" y2="56.0" stroke="#eee" stroke-width="1"/>
<text x="48" y="60.0" text-anchor="end" font-size="11" fill="#666">1.020</text>
<line x1="56.0" y1="364" x2="56.0" y2="368" stroke="#555" stroke-width="1.5"/>
<text x="56.0" y="382" text-anchor="middle" font-size="11" fill="#666">0</text>
<line x1="218.0" y1="364" x2="218.0" y2="368" stroke="#555" stroke-width="1.5"/>
<text x="218.0" y="382" text-anchor="middle" font-size="11" fill="#666">375</text>
<line x1="380.0" y1="364" x2="380.0" y2="368" stroke="#555" stroke-width="1.5"/>
<text x="380.0" y="382" text-anchor="middle" font-size="11" fill="#666">750</text>
<line x1="542.0" y1="364" x2="542.0" y2="368" stroke="#555" stroke-width="1.5"/>
<text x="542.0" y="382" text-anchor="middle" font-size="11" fill="#666">1125</text>
<line x1="704.0" y1="364" x2="704.0" y2="368" stroke="#555" stroke-width="1.5"/>
<text x="704.0" y="382" text-anchor="middle" font-size="11" fill="#666">1500</text>
<text x="380.0" y="412" text-anchor="middle" font-size="12" fill="#444">training step</text>
<text x="14" y="210.0" text-anchor="middle" font-size="12" fill="#444" transform="rotate(-90 14 210.0)">cos(proxy PG, true PG)</text>
<polyline points="56.0,84.4 66.8,84.4 77.6,84.4 88.4,84.5 99.2,84.5 110.0,84.6 120.8,84.7 131.6,84.9 142.4,85.2 153.2,85.7 164.0,86.2 174.8,87.0 185.6,87.9 196.4,89.1 207.2,90.4 218.0,92.0 228.8,93.9 239.6,96.0 250.4,98.4 261.2,101.0 272.0,103.9 282.8,107.1 293.6,110.5 304.4,114.2 315.2,118.2 326.0,122.3 336.8,126.7 347.6,131.3 358.4,136.0 369.2,141.0 380.0,146.1 390.8,151.3 401.6,156.7 412.4,162.1 423.2,167.7 434.0,173.3 444.8,179.0 455.6,184.8 466.4,190.6 477.2,196.4 488.0,202.2 498.8,208.1 509.6,213.9 520.4,219.7 531.2,225.5 542.0,231.3 552.8,237.0 563.6,242.7 574.4,248.4 585.2,254.0 596.0,259.5 606.8,265.0 617.6,270.4 628.4,275.8 639.2,281.0 650.0,286.3 660.8,291.4 671.6,296.5 682.4,301.5 693.2,306.4 704.0,311.2" fill="none" stroke="#d62728" stroke-width="2.5"/>
<circle cx="604" cy="76" r="4" fill="#d62728"/>
<text x="614" y="80" font-size="12" fill="#333">FPO (beta=0)</text>
<polyline points="56.0,84.4 66.8,84.4 77.6,84.4 88.4,84.4 99.2,84.5 110.0,84.5 120.8,84.6 131.6,84.8 142.4,85.0 153.2,85.2 164.0,85.6 174.8,85.9 185.6,86.4 196.4,87.0 207.2,87.6 218.0,88.3 228.8,89.1 239.6,89.9 250.4,90.8 261.2,91.8 272.0,92.8 282.8,93.9 293.6,95.0 304.4,96.2 315.2,97.4 326.0,98.6 336.8,99.9 347.6,101.1 358.4,102.4 369.2,103.7 380.0,105.1 390.8,106.4 401.6,107.7 412.4,109.0 423.2,110.4 434.0,111.7 444.8,113.0 455.6,114.3 466.4,115.6 477.2,116.9 488.0,118.1 498.8,119.4 509.6,120.6 520.4,121.8 531.2,123.0 542.0,124.2 552.8,125.4 563.6,126.5 574.4,127.6 585.2,128.7 596.0,129.8 606.8,130.9 617.6,132.0 628.4,133.0 639.2,134.0 650.0,135.0 660.8,136.0 671.6,137.0 682.4,137.9 693.2,138.8 704.0,139.7" fill="none" stroke="#1f77b4" stroke-width="2.5"/>
<circle cx="604" cy="96" r="4" fill="#1f77b4"/>
<text x="614" y="100" font-size="12" fill="#333">FPO+DiPOD (beta=0.2)</text>
</svg>